[2026-06-21T13:43:25.270Z] extract-floor START: ffmpeg -y -ss 0 -i /Users/edrlu/Documents/Cerebra/regen/sources/source_1782049368734_uvtxef/source.mp4 -t 5 -c:v libx264 -pix_fmt yuv420p -preset veryfast -crf 20 -c:a aac -movflags +faststart /Users/edrlu/Documents/Cerebra/data/2026-06-21T13-43-25-177Z/.floor.98186.rap3f.tmp.mp4
[2026-06-21T13:43:26.969Z] extract-floor OK in 1.70s
stderr:
 1045 kb/s, 23.98 fps, 23.98 tbr, 24k tbn (default)
    Metadata:
      handler_name    : ISO Media file produced by Google Inc.
  Stream #0:1[0x2](eng): Audio: aac (LC) (mp4a / 0x6134706D), 44100 Hz, stereo, fltp, 128 kb/s (default)
    Metadata:
      handler_name    : ISO Media file produced by Google Inc.
Stream mapping:
  Stream #0:0 -> #0:0 (av1 (libdav1d) -> h264 (libx264))
  Stream #0:1 -> #0:1 (aac (native) -> aac (native))
Press [q] to stop, [?] for help
[libx264 @ 0x883035180] using SAR=1/1
[libx264 @ 0x883035180] using cpu capabilities: ARMv8 NEON DotProd I8MM
[libx264 @ 0x883035180] profile High, level 4.0, 4:2:0, 8-bit
[libx264 @ 0x883035180] 264 - core 165 r3222 b35605a - H.264/MPEG-4 AVC codec - Copyleft 2003-2025 - http://www.videolan.org/x264.html - options: cabac=1 ref=1 deblock=1:0:0 analyse=0x3:0x113 me=hex subme=2 psy=1 psy_rd=1.00:0.00 mixed_ref=0 me_range=16 chroma_me=1 trellis=0 8x8dct=1 cqm=0 deadzone=21,11 fast_pskip=1 chroma_qp_offset=0 threads=15 lookahead_threads=5 sliced_threads=0 nr=0 decimate=1 interlaced=0 bluray_compat=0 constrained_intra=0 bframes=3 b_pyramid=2 b_adapt=1 b_bias=0 direct=1 weightb=1 open_gop=0 weightp=1 keyint=250 keyint_min=23 scenecut=40 intra_refresh=0 rc_lookahead=10 rc=crf mbtree=1 crf=20.0 qcomp=0.60 qpmin=0 qpmax=69 qpstep=4 ip_ratio=1.40 aq=1:1.00
Output #0, mp4, to '/Users/edrlu/Documents/Cerebra/data/2026-06-21T13-43-25-177Z/.floor.98186.rap3f.tmp.mp4':
  Metadata:
    major_brand     : isom
    minor_version   : 512
    compatible_brands: isomav01iso2mp41
    encoder         : Lavf62.12.100
  Stream #0:0(und): Video: h264 (avc1 / 0x31637661), yuv420p(tv, bt709, progressive), 1920x1080 [SAR 1:1 DAR 16:9], q=2-31, 23.98 fps, 24k tbn (default)
    Metadata:
      encoder         : Lavc62.28.100 libx264
      handler_name    : ISO Media file produced by Google Inc.
    Side data:
      CPB properties: bitrate max/min/avg: 0/0/0 buffer size: 0 vbv_delay: N/A
  Stream #0:1(eng): Audio: aac (LC) (mp4a / 0x6134706D), 44100 Hz, stereo, fltp, 128 kb/s (default)
    Metadata:
      encoder         : Lavc62.28.100 aac
      handler_name    : ISO Media file produced by Google Inc.
frame=   10 fps=0.0 q=25.0 size=       0KiB time=00:00:00.33 bitrate=   1.2kbits/s speed=0.661x elapsed=0:00:00.50    frame=   53 fps= 53 q=25.0 size=     512KiB time=00:00:02.12 bitrate=1972.0kbits/s speed=2.11x elapsed=0:00:01.00    frame=   76 fps= 50 q=25.0 size=     768KiB time=00:00:03.08 bitrate=2038.6kbits/s speed=2.05x elapsed=0:00:01.50    [mp4 @ 0x883027700] Starting second pass: moving the moov atom to the beginning of the file
[out#0/mp4 @ 0x883028480] video:925KiB audio:80KiB subtitle:0KiB other streams:0KiB global headers:0KiB muxing overhead: 0.520012%
frame=  120 fps= 72 q=-1.0 Lsize=    1011KiB time=00:00:04.92 bitrate=1682.6kbits/s speed=2.95x elapsed=0:00:01.66    
[libx264 @ 0x883035180] frame I:4     Avg QP: 8.40  size: 71391
[libx264 @ 0x883035180] frame P:31    Avg QP:14.10  size: 15048
[libx264 @ 0x883035180] frame B:85    Avg QP:16.32  size:  2293
[libx264 @ 0x883035180] consecutive B-frames:  4.2%  3.3%  2.5% 90.0%
[libx264 @ 0x883035180] mb I  I16..4: 70.0% 14.4% 15.6%
[libx264 @ 0x883035180] mb P  I16..4:  5.6%  1.6%  1.0%  P16..4: 10.1%  4.0%  1.9%  0.0%  0.0%    skip:75.7%
[libx264 @ 0x883035180] mb B  I16..4:  0.3%  0.1%  0.0%  B16..8:  3.6%  0.9%  0.2%  direct: 1.2%  skip:93.8%  L0:44.3% L1:40.0% BI:15.7%
[libx264 @ 0x883035180] 8x8 transform intra:16.2% inter:14.5%
[libx264 @ 0x883035180] coded y,uvDC,uvAC intra: 26.0% 27.7% 19.7% inter: 1.4% 2.2% 0.5%
[libx264 @ 0x883035180] i16 v,h,dc,p: 72% 16%  6%  5%
[libx264 @ 0x883035180] i8 v,h,dc,ddl,ddr,vr,hd,vl,hu: 21% 15% 37%  2%  8%  5%  5%  4%  3%
[libx264 @ 0x883035180] i4 v,h,dc,ddl,ddr,vr,hd,vl,hu: 29% 19% 20%  3%  8%  5%  5%  6%  5%
[libx264 @ 0x883035180] i8c dc,h,v,p: 74%  9% 13%  4%
[libx264 @ 0x883035180] Weighted P-Frames: Y:0.0% UV:0.0%
[libx264 @ 0x883035180] kb/s:1513.65
[aac @ 0x883035c00] Qavg: 1796.190

[2026-06-21T13:43:26.969Z] queued provider=seedance agent=codex duration=5s source=source_1782049368734_uvtxef frame=frames_1782049400513_fooj02 slot=0:00–0:05 · take 2
[2026-06-21T13:59:16.897Z] /complete received clip=2250754B; merging replace=[0.000, 5.000]
[2026-06-21T13:59:16.900Z] archived generated take → data/2026-06-21T13-43-25-177Z/take_2.mp4
[2026-06-21T13:59:16.902Z] probe-source-before-merge START: ffprobe -v error -show_entries stream=codec_type,width,height,r_frame_rate:format=duration -of json /Users/edrlu/Documents/Cerebra/regen/sources/source_1782049368734_uvtxef/source.mp4
[2026-06-21T13:59:16.972Z] probe-source-before-merge OK in 0.07s
[2026-06-21T13:59:16.972Z] probe-generated-clip START: ffprobe -v error -show_entries stream=codec_type,width,height,r_frame_rate:format=duration -of json /Users/edrlu/Documents/Cerebra/regen/job_1782049405218_8hblck/clip.mp4
[2026-06-21T13:59:16.997Z] probe-generated-clip OK in 0.03s
[2026-06-21T13:59:16.997Z] merge plan: source=1920x1080 fps=24000/1001 duration=30.093s audio=true; clip=1280x720 duration=5.062s audio=true; replace=[0.000, 5.000], segments=2
[2026-06-21T13:59:16.998Z] merge-ffmpeg START: ffmpeg -y -i /Users/edrlu/Documents/Cerebra/regen/sources/source_1782049368734_uvtxef/source.mp4 -i /Users/edrlu/Documents/Cerebra/regen/job_1782049405218_8hblck/clip.mp4 -filter_complex [1:v]scale=1920:1080:force_original_aspect_ratio=decrease,pad=1920:1080:(ow-iw)/2:(oh-ih)/2,setsar=1,fps=24000/1001,format=yuv420p,setpts=PTS-STARTPTS[v1];[1:a]aresample=async=1,asetpts=PTS-STARTPTS[a1];[0:v]trim=start=5.000,setpts=PTS-STARTPTS[v2];[0:a]atrim=start=5.000,asetpts=PTS-STARTPTS[a2];[v1][a1][v2][a2]concat=n=2:v=1:a=1[vout][aout] -map [vout] -map [aout] -c:v libx264 -pix_fmt yuv420p -preset veryfast -crf 20 -c:a aac -movflags +faststart /Users/edrlu/Documents/Cerebra/regen/job_1782049405218_8hblck/final.mp4
[2026-06-21T13:59:20.273Z] merge-ffmpeg OK in 3.27s
stderr:

Stream mapping:
  Stream #0:0 (libdav1d) -> trim:default
  Stream #0:1 (aac) -> atrim:default
  Stream #1:0 (h264) -> scale:default
  Stream #1:1 (aac) -> aresample:default
  concat -> Stream #0:0 (libx264)
  concat -> Stream #0:1 (aac)
Press [q] to stop, [?] for help
[libx264 @ 0x979055f80] using SAR=1/1
[libx264 @ 0x979055f80] using cpu capabilities: ARMv8 NEON DotProd I8MM
[libx264 @ 0x979055f80] profile High, level 4.0, 4:2:0, 8-bit
[libx264 @ 0x979055f80] 264 - core 165 r3222 b35605a - H.264/MPEG-4 AVC codec - Copyleft 2003-2025 - http://www.videolan.org/x264.html - options: cabac=1 ref=1 deblock=1:0:0 analyse=0x3:0x113 me=hex subme=2 psy=1 psy_rd=1.00:0.00 mixed_ref=0 me_range=16 chroma_me=1 trellis=0 8x8dct=1 cqm=0 deadzone=21,11 fast_pskip=1 chroma_qp_offset=0 threads=15 lookahead_threads=5 sliced_threads=0 nr=0 decimate=1 interlaced=0 bluray_compat=0 constrained_intra=0 bframes=3 b_pyramid=2 b_adapt=1 b_bias=0 direct=1 weightb=1 open_gop=0 weightp=1 keyint=250 keyint_min=23 scenecut=40 intra_refresh=0 rc_lookahead=10 rc=crf mbtree=1 crf=20.0 qcomp=0.60 qpmin=0 qpmax=69 qpstep=4 ip_ratio=1.40 aq=1:1.00
Output #0, mp4, to '/Users/edrlu/Documents/Cerebra/regen/job_1782049405218_8hblck/final.mp4':
  Metadata:
    major_brand     : isom
    minor_version   : 512
    compatible_brands: isomav01iso2mp41
    encoder         : Lavf62.12.100
  Stream #0:0: Video: h264 (avc1 / 0x31637661), yuv420p(tv, bt709/unknown/unknown, progressive), 1920x1080 [SAR 1:1 DAR 16:9], q=2-31, 23.98 fps, 24k tbn
    Metadata:
      encoder         : Lavc62.28.100 libx264
    Side data:
      CPB properties: bitrate max/min/avg: 0/0/0 buffer size: 0 vbv_delay: N/A
  Stream #0:1: Audio: aac (LC) (mp4a / 0x6134706D), 44100 Hz, stereo, fltp, 128 kb/s
    Metadata:
      encoder         : Lavc62.28.100 aac
frame=   92 fps=0.0 q=25.0 size=    1536KiB time=00:00:03.75 bitrate=3352.2kbits/s speed=7.43x elapsed=0:00:00.50    frame=  162 fps=161 q=25.0 size=    2048KiB time=00:00:06.67 bitrate=2514.1kbits/s speed=6.64x elapsed=0:00:01.00    frame=  244 fps=162 q=25.0 size=    2560KiB time=00:00:10.09 bitrate=2077.8kbits/s speed=6.69x elapsed=0:00:01.50    frame=  406 fps=202 q=25.0 size=    4608KiB time=00:00:16.85 bitrate=2240.3kbits/s speed=8.37x elapsed=0:00:02.01    frame=  540 fps=214 q=25.0 size=    6912KiB time=00:00:22.43 bitrate=2523.4kbits/s speed=8.91x elapsed=0:00:02.51    frame=  647 fps=214 q=25.0 size=    9216KiB time=00:00:26.90 bitrate=2806.4kbits/s speed= 8.9x elapsed=0:00:03.02    [mp4 @ 0x978c10780] Starting second pass: moving the moov atom to the beginning of the file
[out#0/mp4 @ 0x978c00e40] video:10132KiB audio:484KiB subtitle:0KiB other streams:0KiB global headers:0KiB muxing overhead: 0.224013%
frame=  721 fps=223 q=-1.0 Lsize=   10640KiB time=00:00:29.98 bitrate=2906.5kbits/s speed=9.26x elapsed=0:00:03.23    
[libx264 @ 0x979055f80] frame I:16    Avg QP: 9.30  size: 84722
[libx264 @ 0x979055f80] frame P:214   Avg QP:16.07  size: 27518
[libx264 @ 0x979055f80] frame B:491   Avg QP:19.16  size:  6374
[libx264 @ 0x979055f80] consecutive B-frames:  5.5%  8.3%  7.9% 78.2%
[libx264 @ 0x979055f80] mb I  I16..4: 62.8% 16.7% 20.5%
[libx264 @ 0x979055f80] mb P  I16..4: 11.8%  8.3%  2.0%  P16..4: 14.7%  7.8%  4.0%  0.0%  0.0%    skip:51.4%
[libx264 @ 0x979055f80] mb B  I16..4:  1.0%  1.0%  0.1%  B16..8:  9.1%  2.7%  0.4%  direct: 3.2%  skip:82.4%  L0:37.1% L1:46.7% BI:16.2%
[libx264 @ 0x979055f80] 8x8 transform intra:34.4% inter:34.0%
[libx264 @ 0x979055f80] coded y,uvDC,uvAC intra: 34.6% 34.4% 15.8% inter: 4.1% 5.4% 0.4%
[libx264 @ 0x979055f80] i16 v,h,dc,p: 72% 16%  6%  6%
[libx264 @ 0x979055f80] i8 v,h,dc,ddl,ddr,vr,hd,vl,hu: 33% 19% 20%  2%  6%  5%  5%  5%  4%
[libx264 @ 0x979055f80] i4 v,h,dc,ddl,ddr,vr,hd,vl,hu: 28% 18% 16%  3% 10%  7%  6%  6%  6%
[libx264 @ 0x979055f80] i8c dc,h,v,p: 64% 13% 18%  5%
[libx264 @ 0x979055f80] Weighted P-Frames: Y:1.4% UV:0.9%
[libx264 @ 0x979055f80] kb/s:2759.88
[aac @ 0x979056680] Qavg: 830.144

[2026-06-21T13:59:20.274Z] /complete merge OK in 3.4s; final=/Users/edrlu/Documents/Cerebra/regen/job_1782049405218_8hblck/final.mp4
